<svg width="685" height="624" viewBox="0 0 685 624" fill="none" xmlns="http://www.w3.org/2000/svg">
<g style="mix-blend-mode:color-burn">
<path d="M49 159L21 103L1 73L21 43L87 27L131 43L149 73L131 113L109 129L231 185L179 27L259 1L327 15L337 61L305 103L259 113L305 185H231H179L87 145L131 185L39 229L49 159Z" fill="#110D0D"/>
<path d="M393 61L437 27H517V61L479 73H437L393 103V145L437 173L479 159L451 129L517 113V145L499 185L437 205L373 185L351 159V113L393 61Z" fill="#110D0D"/>
<path d="M87 145L131 185L39 229L49 159L21 103L1 73L21 43L87 27L131 43L149 73L131 113L109 129M87 145L179 185H231M87 145L109 129M231 185L109 129M231 185L179 27L259 1L327 15L337 61L305 103L259 113L305 185H231ZM437 27L393 61L351 113V159L373 185L437 205L499 185L517 145V113L451 129L479 159L437 173L393 145V103L437 73H479L517 61V27H437Z" stroke="black"/>
</g>
<path d="M65 99L53 79V59H87V79L65 99Z" fill="white"/>
<path d="M225 79V59V33H273H303V59L273 79H225Z" fill="white"/>
<path d="M65 99L53 79V59H87V79L65 99Z" stroke="white"/>
<path d="M225 79V59V33H273H303V59L273 79H225Z" stroke="white"/>
<path d="M119 309L91 335L101 395H183L211 355L183 291L119 309Z" fill="#F2E5DE" stroke="black"/>
<path d="M121 309L51 365L75 321L97 251L19 365L39 251L131 199L245 277L179 291L121 309Z" fill="#002F0D"/>
<path d="M75 321L51 365L121 309L179 291L245 277M75 321L131 277H245M75 321L97 251L19 365L39 251L131 199L245 277M201 467L293 495V597M201 467L161 521L179 611M201 467L190 433M201 467L179 399L190 433M190 433L293 385L319 291M190 433L75 443L19 399" stroke="black" stroke-width="3"/>
<path d="M489 237C455 237 437 267 437 267L423 303L437 343L479 359H527L541 331L555 303L541 253C541 253 523 237 489 237Z" fill="#8C6348" stroke="black"/>
<path d="M449 225L481 235V215L505 199H535H559V215H535H505V235L535 225H575V235V253L567.242 258.818L593 277V299H575V277H549L529 245L505 235H481L469 253H449V277L419 299V309L401 329H391L401 309L419 289L433 253L459 235H449L419 253L401 289H391L401 253L449 225Z" fill="#011F09" fill-opacity="0.83"/>
<path d="M481 235L449 225L401 253L391 289H401L419 253L449 235H459L433 253L419 289L401 309L391 329H401L419 309V299L449 277V253H469L481 235ZM481 235V215L505 199H535H559V215H535H505V235M481 235H505M505 235L535 225H575V235V253L559 265V253M505 235L529 245M559 253L529 245M559 253L593 277V299H575V277H549L529 245M549 517L661 541L683 623M549 517L491 571L482.923 613L481 623M549 517L527 437M549 517L505 357L527 437M527 437L623 383L645 309M527 437L419 447L375 401" stroke="black" stroke-width="3"/>
</svg>
